# xmcd
#
# Track frame offsets: 
#        150
#        15974
#        30958
#        47647
#        61001
#        80089
#        93939
#        105286
#        121879
#        139556
#        155046
#        166951
#        181531
#        198060
#        214291
#        229432
#        243885
#        255833
#        270307
#        288574
#
# Disc length: 4074 seconds
#
# Revision: 2
# Processed by: cddbd v1.5.2PL0 Copyright (c) Steve Scherf et al.
# Submitted via: ExactAudioCopy v1.0b3
#
DISCID=f20fe814
DTITLE=Carter, Carlene - The Platinum Collection
DYEAR=2007
DGENRE=Country
TTITLE0=Do It In A Heartbeat
TTITLE1=Baby Ride Easy
TTITLE2=I Fell In Love
TTITLE3=Come On Back
TTITLE4=The Sweetest Thing
TTITLE5=One Love
TTITLE6=My Dixie Darling
TTITLE7=Goodnight Dallas
TTITLE8=Me And The Wildwood Rose
TTITLE9=The Leavin' Side
TTITLE10=You Are The One
TTITLE11=Every Little Thing
TTITLE12=Unbreakable Heart
TTITLE13=I Love You 'Cause I Want To
TTITLE14=Love Like This
TTITLE15=Hurricane
TTITLE16=Carter, Carlene feat. Carl Smith - Loose Talk
TTITLE17=Go Wild
TTITLE18=The Lucky Ones
TTITLE19=All Night Long
EXTD=
EXTT0=
EXTT1=
EXTT2=
EXTT3=
EXTT4=
EXTT5=
EXTT6=
EXTT7=
EXTT8=
EXTT9=
EXTT10=
EXTT11=
EXTT12=
EXTT13=
EXTT14=
EXTT15=
EXTT16=
EXTT17=
EXTT18=
EXTT19=
PLAYORDER=
